<svg t="1715430109960" class="icon" viewBox="0 0 1344 1024" version="1.1" xmlns="http://www.w3.org/2000/svg" p-id="12863" width="200" height="200"><path d="M948.817063 784.800656a800.341263 800.341263 0 0 1-156.456111-18.480722c0 65.522559-39.481542 126.004922-105.004102 173.466776a507.37982 507.37982 0 0 1-290.861362 84.003282C176.196883 1024 1.260049 904.505332 1.260049 766.529943a84.003281 84.003281 0 0 1 9.240361-45.991797c64.472518 101.013946 220.508614 165.486464 395.445447 165.486464 193.207547 0 358.694011-82.743232 413.926169-193.207547 27.721083 0 55.022149 9.240361 82.743232 9.240361h18.270714c183.967186 0 340.21329-73.502871 404.4758-174.726825 9.240361-9.240361 9.240361-18.480722 18.480722-27.721083v27.721083c0.210008 147.005742-174.306809 257.470057-395.025431 257.470057z m-18.69073-131.885151c-220.718622 0-395.445447-118.864643-395.445447-257.470058S709.407711 137.97539 930.336341 137.97539s395.235439 119.704676 395.235439 257.470057c0 147.215751-174.726825 257.470057-395.445447 257.470058z m-395.445447-110.254307c45.781788 54.392125 101.223954 101.223954 229.748975 138.395406-55.232158 91.983593-202.2379 165.696473-367.934373 165.696472C175.986874 846.33306 0 726.628384 0 588.652994a181.657096 181.657096 0 0 1 55.232158-128.735028c82.743232 64.26251 202.447908 101.013946 340.213289 101.013945a241.089418 241.089418 0 0 0 139.235439-18.270713z m-45.991797-147.005743a177.036916 177.036916 0 0 0 36.33142 110.254307 568.492207 568.492207 0 0 1-128.945037 9.240361C175.986874 514.940115 0 395.445447 0 257.470057S175.986874 0 396.495488 0c147.005742 0 275.950779 55.232158 349.663659 137.97539-156.456112 45.991797-257.680066 137.97539-257.680066 257.470057z" fill="#FFA914" p-id="12864"></path></svg>