<?xml version="1.0" encoding="utf-8"?>
<svg version="1.1" xmlns:xlink="http://www.w3.org/1999/xlink" width="13px" height="13px" xmlns="http://www.w3.org/2000/svg">
  <g transform="matrix(1 0 0 1 -284 -152 )">
    <path d="M 0 12.458333329101565  L 0 6.5  C 0 2.9101471318359335  2.9101471318359335 0  6.5 0  C 10.089852868164067 0  13 2.9101471318359335  13 6.5  L 13 12.458333329101565  C 13 12.757482752929686  12.757482752929686 13  12.458333329101565 13  L 12.097217247070315 13  L 10.651094250976556 12.337000000000002  C 10.105243674804688 11.973134481445314  9.394143674804695 11.973149423828122  8.848322983398443 12.33707471191406  L 7.401408041015634 12.76011263769531  C 7.224518386718757 12.878068962890627  6.924054020507821 12.958011498046872  6.5 13  C 6.086062074218745 12.964780460937495  5.7855976953125055 12.88483792578125  5.598562074218748 12.760157477539064  L 4.151378156250001 12.337029884765627  C 3.60555746484375 11.973149423828122  2.8944425224609294 11.973149423828122  2.348606901367191 12.337029884765627  L 0.9027678105468759 13  L 0.5416666708984346 13  C 0.24251724707031438 13  0 12.757482752929686  0 12.458333329101565  Z M 6.5 0.8125  C 3.35888620996094 0.8125  0.8125 3.35888620996094  0.9285714285714285 6.5  L 0.9285714285714285 12.147558617187503  L 1.9573517285156279 11.622597695312498  C 2.729222996093758 11.139595390625004  3.7050000000000085 11.128239078125002  4.486479308593745 11.588498847656249  L 5.945856325195306 12.015182752929684  L 6.049258617187501 12.08411263769531  C 6.061780460937506 12.092465505859376  6.103186197265633 12.109843674804694  6.1731023046875 12.128447131835939  C 6.257990806640628 12.151025288085938  6.365666670898444 12.16977816894531  6.494844827148445 12.183390806640626  C 6.6321666708984415 12.167372419921872  6.745879308593744 12.14693103710938  6.8344436748046835 12.123366670898434  C 6.904972407226561 12.104583917968748  6.944525288085939 12.088191958984371  6.9506816132812475 12.084097695312503  L 7.054083905273443 12.01515286816406  L 8.513221843750003 11.588543674804683  C 9.294671267578122 11.12825402050781  10.270433341796869 11.1395804609375  11.042319539062504 11.622537925781247  L 12.071428571428571 12.147573559570311  L 12.071428571428571 6.5  C 12.1875 3.35888620996094  9.64111379003906 0.8125  6.5 0.8125  Z M 3.833983905273432 3.6562574775390644  L 4.3671930986328125 3.6562574775390644  C 5.069970115234382 3.6562574775390644  5.666909193359381 4.109464378906253  5.881648271484378 4.739590806640621  L 7.118351728515621 4.739590806640621  C 7.333090806640619 4.10946436621094  7.930029884765617 3.6562574775390644  8.63280690136719 3.6562574775390644  L 9.166016094726567 3.6562574775390644  C 10.049448284179695 3.6562574775390644  10.765613790039072 4.372422996093746  10.765613790039072 5.255855172851561  L 10.765613790039072 5.306644827148439  C 10.765613790039072 6.190077016601557  10.049448271484373 6.906242522460935  9.166016094726567 6.906242522460935  L 8.63280690136719 6.906242522460935  C 7.930029884765617 6.906242522460935  7.333090806640619 6.453035621093747  7.118351728515621 5.822909193359379  L 5.881648271484378 5.822909193359379  C 5.666909193359381 6.45303563378906  5.069970115234382 6.906242522460935  4.3671930986328125 6.906242522460935  L 3.833983905273432 6.906242522460935  C 2.9505517158203056 6.906242522460935  2.2343862099609453 6.190077003906254  2.2343862099609453 5.306644827148439  L 2.2343862099609453 5.255855172851561  C 2.2343862099609453 4.372422983398443  2.9505517285156273 3.6562574775390644  3.833983905273432 3.6562574775390644  Z M 0.8125 12.458333329101565  L 0.8125 12.1875  L 0.7253850576171859 12.1875  L 0.6629701152343822 12.216114942382807  C 0.7516390781249973 12.26061379003906  0.8125 12.352360921874999  0.8125 12.458333329101565  Z M 12.337029884765636 12.216114942382816  L 12.274600000000007 12.1875  L 12.1875 12.1875  L 12.1875 12.458333329101565  C 12.1875 12.352360909179685  12.248360921875003 12.260613790039068  12.337029884765636 12.216114942382816  Z M 5.281272419921873 8.734386209960936  C 5.281272419921873 8.397820691406249  5.554093111328123 8.125  5.890628732421881 8.125  L 7.1093862099609275 8.125  C 7.445936786132815 8.125  7.718757477539065 8.397820691406249  7.718757477539065 8.734371267578128  L 7.718757477539065 9.039049423828123  C 7.718757477539065 9.54388275292969  7.30952644042969 9.953128732421881  6.804708041015621 9.953128732421881  L 6.195321843749996 9.953128732421881  C 5.690503457031248 9.953128732421881  5.281272419921873 9.54388275292969  5.281272419921873 9.03906436621094  L 5.281272419921873 8.734386209960936  Z M 9.432620691406257 4.739590806640621  C 9.285377016601558 4.739590806640621  9.166016094726567 4.860834481445309  9.166016094726567 5.010424135742187  C 9.166016094726567 5.159998847656247  9.285377016601558 5.281257464843752  9.432620691406257 5.281257477539064  C 9.579864366210938 5.281257477539064  9.69922528808593 5.15999886035156  9.69922528808593 5.010424135742187  C 9.69922528808593 4.860849411132814  9.579864366210938 4.739590806640621  9.432620691406257 4.739590806640621  Z M 4.633782752929694 4.739590806640621  C 4.486554020507803 4.739590806640621  4.3671930986328125 4.860834481445309  4.3671930986328125 5.010424135742187  C 4.3671930986328125 5.159998847656247  4.486554020507821 5.281257464843752  4.633782752929694 5.281257477539064  C 4.781026427734375 5.281257477539064  4.9003873496093835 5.15999886035156  4.900387362304687 5.010424135742187  C 4.900387375000008 4.860849411132814  4.781026440429695 4.739590806640621  4.633782752929694 4.739590806640621  Z " fill-rule="nonzero" fill="#b2bad2" stroke="none" transform="matrix(1 0 0 1 284 152 )" />
  </g>
</svg>