<?xml version="1.0" encoding="utf-8"?>
<svg version="1.1" xmlns:xlink="http://www.w3.org/1999/xlink" width="15px" height="14px" xmlns="http://www.w3.org/2000/svg">
  <g transform="matrix(1 0 0 1 -353 -26 )">
    <path d="M 2 12  L 14.127018960674157 12  C 14.581416783707864 12.291666666666666  14.94996488764045 12.656119791666669  14.94996488764045 13.10546875  C 14.94996488764045 13.554817708333331  14.581416783707864 13.919270833333332  14.127018960674157 14  L 0.8940484550561798 14  C 0.43951896067415636 13.919270833333332  0.07110252808988765 13.554817708333331  0 13.10546875  L 0 0.8658854166666667  C 0.07110252808988765 0.4164062499999999  0.43951896067415636 0.05208333333333333  0.8940484550561798 0.05208333333333333  C 1.3485779494382033 0.05208333333333333  1.716994382022472 0.4164062499999999  2 0.8658854166666667  L 2 12  Z M 9.716028792134832 8.166666666666668  L 6.666388693820227 8.166666666666668  L 4.669000175561797 10.197851562500002  C 4.514807343885581 10.350680613361638  4.305390125168002 10.436454774538156  4.087078651685394 10.436197916666668  C 3.8687671782027846 10.436454774538156  3.6593499594852035 10.350680613361638  3.505157127808988 10.197851562500002  C 3.183813202247191 9.880013020833335  3.183813202247191 9.364778645833333  3.505157127808988 9.046940104166666  L 5.743570049157302 6.833398437500001  C 5.897906794496366 6.680782250978816  6.107230534792106 6.595046377166016  6.325491573033708 6.666666666666666  L 9.375131671348313 6.666666666666666  L 12.574021242977528 3.431705729166667  C 12.895365168539325 3.1138671875  13.416520365168541 3.1138671875  13.737864290730338 3.431705729166667  C 14.059274051966291 3.7494791666666663  14.059274051966291 4.264778645833332  13.737864290730338 4.5826171874999995  L 10.297950316011237 7.984309895833331  C 10.143634065459047 8.136956412797408  9.934297024578626 8.2226977343308  9.716028792134832 8.166666666666668  Z " fill-rule="nonzero" fill="#aaaaaa" stroke="none" transform="matrix(1 0 0 1 353 26 )" />
  </g>
</svg>