<?xml version="1.0" encoding="utf-8"?>
<svg version="1.1" xmlns:xlink="http://www.w3.org/1999/xlink" width="27px" height="24px" xmlns="http://www.w3.org/2000/svg">
  <g transform="matrix(1 0 0 1 -19 -549 )">
    <path d="M 22.129261363636363 23.848101265822784  C 22.6593017578125 23.866791930379748  23.08806818181818 23.405162183544306  23.011363636363637 22.83494857594937  L 23.011363636363637 20.771261867088608  C 23.0877685546875 16.42909414556962  20.580488725142043 12.712618670886075  17.043989701704543 11.191851265822786  C 18.386019620028407 10.057060917721518  19.252840909090907 8.29954509493671  19.252840909090907 6.324564873417721  C 19.252541281960227 2.9101068037974684  16.672152432528407 0.13291139240506328  13.5 0.13291139240506328  C 10.32754794034091 0.13291139240506328  7.747159090909091 2.9101068037974684  7.747159090909091 6.3242681962025316  C 7.747159090909091 8.29954509493671  8.614280007102272 10.057060917721518  9.956010298295453 11.191554588607595  C 6.419511274857955 12.712321993670885  3.9119318181818183 16.4296875  3.9886363636363638 20.771261867088608  L 3.9886363636363638 22.83494857594937  C 3.9119318181818183 23.405162183544306  4.3406982421875 23.866791930379748  4.870738636363636 23.848101265822784  L 22.129261363636363 23.848101265822784  Z M 25.96478826349432 20.658227848101266  C 26.494828657670457 20.771261867088608  26.92389470880682 20.309928797468356  26.846590909090907 19.739418512658226  L 26.846590909090907 18.14299841772152  C 26.923295454545457 14.994066455696203  25.2960205078125 12.21064082278481  22.799527254971593 10.818928006329113  C 23.584250710227273 9.887658227848101  24.04657537286932 8.663271360759493  24.04657537286932 7.357298259493671  C 24.04657537286932 4.511570411392405  21.895851828835227 2.1968947784810124  19.252840909090907 2.1968947784810124  C 19.173140092329543 2.1968947784810124  19.099132191051137 2.2182555379746836  19.0206298828125 2.222112341772152  C 19.436512340198863 2.8682753164556964  19.75201970880682 3.590684335443038  19.955166903409093 4.3644185126582276  C 19.955166903409093 4.3644185126582276  21.262440074573863 8.141712816455696  18.640702681107957 11.104331487341772  C 19.07755903764205 11.316159018987342  24.038185813210227 13.532041139240507  24.037586558948863 20.771558544303797  C 24.040882457386363 20.771558544303797  24.043878728693187 20.771261867088608  24.047174627130687 20.658227848101266  L 25.96478826349432 20.658227848101266  Z M 0.1534090909090909 19.73971518987342  C 0.07670454545454546 20.309928797468356  0.5054709694602273 20.771558544303797  1.0355113636363638 20.658227848101266  L 2.953125 20.658227848101266  C 2.9525257457386367 13.532041139240507  7.913152521306818 11.315862341772153  8.35000887784091 11.104331487341772  C 5.728271484375 8.141712816455696  7.044833096590909 4.3656052215189876  7.044833096590909 4.3656052215189876  C 7.247381036931818 3.590684335443038  7.563487659801137 2.8679786392405062  7.978770862926137 2.222112341772152  C 7.900867808948863 2.2179588607594938  7.8265602805397725 2.1968947784810124  7.747159090909091 2.1968947784810124  C 5.103848544034091 2.1968947784810124  2.953125 4.511570411392405  2.953125 7.357298259493671  C 2.953125 8.663271360759493  3.415749289772727 9.887658227848101  4.200173117897727 10.818928006329113  C 1.7036798650568181 12.21064082278481  0.07670454545454546 14.994066455696203  0.1534090909090909 18.14329509493671  L 0.1534090909090909 19.73971518987342  Z " fill-rule="nonzero" fill="#419c25" stroke="none" transform="matrix(1 0 0 1 19 549 )" />
  </g>
</svg>