<?xml version="1.0" encoding="utf-8"?>
<svg version="1.1" xmlns:xlink="http://www.w3.org/1999/xlink" width="12px" height="12px" xmlns="http://www.w3.org/2000/svg">
  <g transform="matrix(1 0 0 1 -68 -423 )">
    <path d="M 0.04836 6  C 0.04836 2.71296  2.71296 0.04836  6 0.04836  C 9.287039999999998 0.04836  11.951640000000001 2.71296  11.951640000000001 6  C 11.951640000000001 9.287039999999998  9.287040000000001 11.951640000000001  6 11.951640000000001  C 2.71296 11.951640000000001  0.04836 9.287040000000001  0.04836 6  Z M 6.901319999999998 8.94  C 6.901319999999998 8.44212  6.4977599999999995 8.03868  6 8.03868  C 5.50224 8.03868  5.09868 8.44212  5.09868 8.94  C 5.09868 9.437759999999999  5.50224 9.84132  6 9.84132  C 6.4977599999999995 9.84132  6.901319999999998 9.437759999999999  6.901319999999998 8.94  Z M 5.197799999999999 6.55776  C 5.1978 6.9865200000000005  5.54532 7.334040000000002  5.97408 7.334040000000002  C 6.402839999999999 7.334040000000002  6.75036 6.9864  6.75036 6.55776  L 6.75036 2.9349599999999993  C 6.75036 2.5061999999999998  6.402839999999999 2.1586799999999995  5.974079999999999 2.1586799999999995  C 5.545319999999999 2.1586799999999995  5.197799999999999 2.5063199999999997  5.197799999999999 2.9349599999999993  L 5.197799999999999 6.55776  Z " fill-rule="nonzero" fill="#419c25" stroke="none" transform="matrix(1 0 0 1 68 423 )" />
  </g>
</svg>